:FULLY-SPECIFIED
:FORCE-ALL-JOINTS-BE-3DOF
:DEGREES
114
root 9.36081 16.1867 -21.4367 4.14273 3.6872 4.58448
lfemur 13.625 0.463736 -28.7976
ltibia 7.95142e-15 0 0
lfoot -14.0909 2.63378 0.00263276
ltoes -2.96684 0 0
rfemur -40.1344 11.6136 7.47031
rtibia 28.8419 -0 0
rfoot -23.0728 -9.03525 0.00675277
rtoes -19.2059 0 0
lowerback -8.03285 -3.2473 -5.60246
upperback -0.990325 -3.92254 2.33332
thorax 4.0145 -2.05719 5.12689
lowerneck -19.4413 -5.13957 -13.2497
upperneck 21.3876 -5.8889 10.8417
head 10.8426 -2.51948 5.26748
lclavicle 3.43522e-15 4.37326e-15 0
lhumerus -24.996 -26.4915 92.5413
lradius 42.3863 -0 0
lwrist 12.9437 0 0
lhand -13.0986 -25.2787 -0.000255684
lfingers 7.12502 0 0
lthumb 12.9981 4.29495 -0.000530106
rclavicle 3.43522e-15 4.37326e-15 0
rhumerus -46.3949 9.49131 -84.5449
rradius 35.5506 -0 0
rwrist -19.3053 0 0
rhand -29.5042 -23.5264 0.00165213
rfingers 7.12502 0 0
rthumb -2.83864 -53.4869 0.00157768
115
root 9.35402 16.1749 -21.3024 4.23169 4.03138 4.63309
lfemur 14.0368 0.472366 -28.7253
ltibia 1.59028e-14 0 0
lfoot -14.3807 2.42559 0
ltoes -2.85137 0 0
rfemur -40.5964 12.2383 6.76713
rtibia 28.2368 0 0
rfoot -23.451 -9.44436 0
rtoes -19.0088 0 0
lowerback -8.14713 -3.307 -5.6302
upperback -0.9908 -3.99267 2.31486
thorax 4.08787 -2.09412 5.10896
lowerneck -19.3289 -5.17902 -13.265
upperneck 21.3105 -5.95092 10.8474
head 10.8023 -2.55068 5.25973
lclavicle 1.08213e-14 3.18055e-15 0
lhumerus -25.3625 -26.7335 92.9123
lradius 42.6137 0 0
lwrist 13.0172 0 0
lhand -12.7579 -25.2959 0
lfingers 7.12502 0 0
lthumb 13.3266 4.25797 0
rclavicle 1.08213e-14 3.18055e-15 0
rhumerus -46.3924 9.13805 -84.2543
rradius 35.2817 0 0
rwrist -19.1783 0 0
rhand -29.3331 -23.3051 0
rfingers 7.12502 0 0
rthumb -2.67343 -53.2681 0
116
root 9.34104 16.1581 -21.1629 4.34838 4.31614 4.72251
lfemur 14.4628 0.51996 -28.6279
ltibia 1.48426e-14 0 0
lfoot -14.5793 2.12332 0.00262014
ltoes -3.0577 0 0
rfemur -40.8494 12.3092 6.41418
rtibia 27.95 -0 0
rfoot -23.7237 -10.1172 0.00800789
rtoes -19.5218 0 0
lowerback -8.17717 -3.35838 -5.72515
upperback -1.01496 -4.05016 2.2903
thorax 4.09209 -2.12338 5.12806
lowerneck -19.313 -5.19824 -13.3425
upperneck 21.3035 -5.98353 10.9548
head 10.808 -2.55999 5.30856
lclavicle 2.2363e-15 7.95142e-16 0
lhumerus -25.8279 -26.7836 93.3412
lradius 42.5027 -0 0
lwrist 12.832 0 0
lhand -12.5619 -25.1127 0.00156661
lfingers 7.12502 0 0
lthumb 13.5155 4.42819 0.00140289
rclavicle 2.2363e-15 7.95142e-16 0
rhumerus -46.5065 8.87658 -84.0735
rradius 35.1267 -0 0
rwrist -19.0121 0 0
rhand -29.3172 -23.2222 5.76711e-05
rfingers 7.12502 0 0
rthumb -2.65803 -53.1854 5.55713e-05
117
root 9.32806 16.1413 -21.0234 4.46557 4.60072 4.81255
lfemur 14.8888 0.566828 -28.5302
ltibia 1.37824e-14 0 0
lfoot -14.778 1.82103 0.00419226
ltoes -3.26402 0 0
rfemur -41.1029 12.3785 6.06082
rtibia 27.6631 -0 0
rfoot -23.9964 -10.7901 0.0128131
rtoes -20.0348 0 0
lowerback -8.20713 -3.40982 -5.82009
upperback -1.0391 -4.10766 2.26577
thorax 4.09631 -2.15264 5.14716
lowerneck -19.2971 -5.21743 -13.4201
upperneck 21.2964 -6.01612 11.0622
head 10.8136 -2.5693 5.35738
lclavicle -6.3487e-15 -1.59027e-15 0
lhumerus -26.2938 -26.8305 93.7707
lradius 42.3917 -0 0
lwrist 12.6468 0 0
lhand -12.3659 -24.9296 0.00250659
lfingers 7.12502 0 0
lthumb 13.7044 4.59841 0.00224464
rclavicle -6.3487e-15 -1.59027e-15 0
rhumerus -46.6214 8.61547 -83.8922
rradius 34.9717 -0 0
rwrist -18.8459 0 0
rhand -29.3012 -23.1394 9.22738e-05
rfingers 7.12502 0 0
rthumb -2.64262 -53.1027 8.89141e-05
118
root 9.31508 16.1245 -20.8839 4.58325 4.88511 4.90321
lfemur 15.315 0.612968 -28.4322
ltibia 1.27222e-14 0 0
lfoot -14.9766 1.51875 0.00471631
ltoes -3.47035 0 0
rfemur -41.3569 12.4463 5.70706
rtibia 27.3763 -0 0
rfoot -24.2692 -11.463 0.014415
rtoes -20.5478 0 0
lowerback -8.23701 -3.4613 -5.915
upperback -1.06322 -4.16516 2.24126
thorax 4.10051 -2.18191 5.16625
lowerneck -19.2812 -5.2366 -13.4977
upperneck 21.2893 -6.0487 11.1697
head 10.8192 -2.57862 5.40621
lclavicle -1.49337e-14 -3.97568e-15 0
lhumerus -26.7604 -26.8744 94.2008
lradius 42.2808 -0 0
lwrist 12.4616 0 0
lhand -12.1699 -24.7464 0.00281992
lfingers 7.12502 0 0
lthumb 13.8932 4.76863 0.00252523
rclavicle -1.49337e-14 -3.97568e-15 0
rhumerus -46.737 8.35472 -83.7106
rradius 34.8166 -0 0
rwrist -18.6796 0 0
rhand -29.2852 -23.0565 0.000103808
rfingers 7.12502 0 0
rthumb -2.62722 -53.02 0.000100028
119
root 9.3021 16.1077 -20.7445 4.70144 5.16932 4.9945
lfemur 15.7412 0.658378 -28.3338
ltibia 1.1662e-14 0 0
lfoot -15.1753 1.21646 0.00419226
ltoes -3.67667 0 0
rfemur -41.6114 12.5126 5.3529
rtibia 27.0895 -0 0
rfoot -24.542 -12.1359 0.0128131
rtoes -21.0608 0 0
lowerback -8.2668 -3.51283 -6.00989
upperback -1.08731 -4.22268 2.21677
thorax 4.1047 -2.21117 5.18535
lowerneck -19.2652 -5.25575 -13.5752
upperneck 21.2821 -6.08127 11.2771
head 10.8249 -2.58795 5.45503
lclavicle -2.35187e-14 -6.36108e-15 0
lhumerus -27.2274 -26.9151 94.6314
lradius 42.1698 -0 0
lwrist 12.2764 0 0
lhand -11.9738 -24.5632 0.00250659
lfingers 7.12502 0 0
lthumb 14.0821 4.93885 0.00224464
rclavicle -2.35187e-14 -6.36108e-15 0
rhumerus -46.8534 8.09433 -83.5285
rradius 34.6616 -0 0
rwrist -18.5134 0 0
rhand -29.2693 -22.9736 9.22738e-05
rfingers 7.12502 0 0
rthumb -2.61182 -52.9374 8.89141e-05
120
root 9.28912 16.0909 -20.605 4.82013 5.45333 5.08642
lfemur 16.1675 0.703055 -28.2351
ltibia 1.06019e-14 0 0
lfoot -15.374 0.91418 0.00262014
ltoes -3.88299 0 0
rfemur -41.8664 12.5773 4.99836
rtibia 26.8026 -0 0
rfoot -24.8147 -12.8088 0.00800789
rtoes -21.5738 0 0
lowerback -8.29651 -3.56441 -6.10475
upperback -1.11138 -4.28021 2.1923
thorax 4.10889 -2.24044 5.20444
lowerneck -19.2492 -5.27488 -13.6528
upperneck 21.2748 -6.11382 11.3845
head 10.8305 -2.59728 5.50386
lclavicle -3.21037e-14 -8.74649e-15 0
lhumerus -27.695 -26.9527 95.0626
lradius 42.0588 -0 0
lwrist 12.0912 0 0
lhand -11.7778 -24.3801 0.00156661
lfingers 7.12502 0 0
lthumb 14.271 5.10907 0.00140289
rclavicle -3.21037e-14 -8.74649e-15 0
rhumerus -46.9705 7.83431 -83.346
rradius 34.5066 -0 0
rwrist -18.3472 0 0
rhand -29.2533 -22.8908 5.76711e-05
rfingers 7.12502 0 0
rthumb -2.59641 -52.8547 5.55713e-05
121
root 9.27614 16.0741 -20.4655 4.93934 5.73716 5.17897
lfemur 16.5939 0.746996 -28.136
ltibia 9.54166e-15 0 0
lfoot -15.5726 0.611905 0
ltoes -4.08932 0 0
rfemur -42.1218 12.6405 4.64343
rtibia 26.5158 0 0
rfoot -25.0874 -13.4816 0
rtoes -22.0868 0 0
lowerback -8.32613 -3.61604 -6.1996
upperback -1.13543 -4.33775 2.16786
thorax 4.11306 -2.26971 5.22353
lowerneck -19.2332 -5.29399 -13.7304
upperneck 21.2675 -6.14636 11.492
head 10.8361 -2.60661 5.55268
lclavicle -4.06887e-14 -1.11319e-14 0
lhumerus -28.163 -26.9871 95.4942
lradius 41.9478 0 0
lwrist 11.906 0 0
lhand -11.5818 -24.1969 0
lfingers 7.12502 0 0
lthumb 14.4599 5.27929 0
rclavicle -4.06887e-14 -1.11319e-14 0
rhumerus -47.0884 7.57466 -83.1631
rradius 34.3516 0 0
rwrist -18.181 0 0
rhand -29.2374 -22.8079 0
rfingers 7.12502 0 0
rthumb -2.58101 -52.772 0
122
root 9.25716 16.0572 -20.3157 5.09413 5.96681 5.3157
lfemur 16.9827 0.82122 -28.0235
ltibia 1.90833e-14 0 0
lfoot -15.3961 0.331462 -0.00216044
ltoes -4.71003 0 0
rfemur -42.214 12.2143 4.65285
rtibia 26.5492 -0 0
rfoot -24.9032 -13.3303 0.00121651
rtoes -21.6112 0 0
lowerback -8.34969 -3.68952 -6.35482
upperback -1.14726 -4.41914 2.14153
thorax 4.13559 -2.31265 5.2707
lowerneck -19.3105 -5.30531 -13.6443
upperneck 21.2436 -6.15851 11.4236
head 10.8383 -2.61036 5.50875
lclavicle -3.44469e-14 -1.09994e-14 0
lhumerus -28.5763 -26.6677 95.8279
lradius 41.431 -0 0
lwrist 11.4998 0 0
lhand -11.4503 -24.2107 -7.93072e-05
lfingers 7.12502 0 0
lthumb 14.5866 5.25613 -0.000128105
rclavicle -3.44469e-14 -1.09994e-14 0
rhumerus -47.1198 7.40934 -83.1098
rradius 34.134 -0 0
rwrist -18.3736 0 0
rhand -29.4879 -22.4997 -0.00336959
rfingers 7.12502 0 0
rthumb -2.82295 -52.46 -0.00329349
123
root 9.23819 16.0402 -20.1659 5.24954 6.19609 5.45312
lfemur 17.3717 0.894678 -27.9106
ltibia 2.8625e-14 0 0
lfoot -15.2195 0.0510136 -0.00345674
ltoes -5.33075 0 0
rfemur -42.306 11.7882 4.66296
rtibia 26.5825 -0 0
rfoot -24.7189 -13.179 0.00194642
rtoes -21.1355 0 0
lowerback -8.37306 -3.76306 -6.51003
upperback -1.15906 -4.50053 2.11521
thorax 4.15808 -2.35561 5.31786
lowerneck -19.3877 -5.31651 -13.5581
upperneck 21.2197 -6.1707 11.3552
head 10.8405 -2.6141 5.46483
lclavicle -2.82051e-14 -1.08669e-14 0
lhumerus -28.9865 -26.3462 96.1581
lradius 40.9142 -0 0
lwrist 11.0935 0 0
lhand -11.3187 -24.2245 -0.000126892
lfingers 7.12502 0 0
lthumb 14.7134 5.23296 -0.000204969
rclavicle -2.82051e-14 -1.08669e-14 0
rhumerus -47.1513 7.24405 -83.0564
rradius 33.9165 -0 0
rwrist -18.5662 0 0
rhand -29.7385 -22.1915 -0.0053914
rfingers 7.12502 0 0
rthumb -3.0649 -52.1481 -0.00526965
